<svg width="750" height="206" viewBox="0 0 750 206" fill="none" xmlns="http://www.w3.org/2000/svg">
<path d="M2.97656 42.0967L2.80077 41.1123L0.247661 41.5682L2.44595 42.9443L2.97656 42.0967ZM314.753 168.34V169.34H314.892L315.026 169.302L314.753 168.34ZM710.827 90.4967L716.6 80.4967H705.053L710.827 90.4967ZM401.47 185.28L407.243 175.28H395.696L401.47 185.28ZM204.643 205.043L210.417 195.043H198.87L204.643 205.043ZM17.1512 80.8167L22.9247 70.8167H11.3777L17.1512 80.8167ZM747.127 30.8034L747.729 31.6012L749.273 30.435L747.429 29.8502L747.127 30.8034ZM59.2674 31.0289L2.80077 41.1123L3.15235 43.0811L59.619 32.9978L59.2674 31.0289ZM205.549 168.764L217.246 143.757L215.434 142.91L203.737 167.916L205.549 168.764ZM204.643 169.34H314.753V167.34H204.643V169.34ZM315.026 169.302L401.743 144.699L401.197 142.775L314.48 167.378L315.026 169.302ZM402.289 143.163L390.996 127.03L389.357 128.177L400.651 144.31L402.289 143.163ZM401.736 144.701L711.093 59.1939L710.56 57.2662L401.203 142.773L401.736 144.701ZM710.87 57.231L664.487 55.2143L664.4 57.2124L710.783 59.2291L710.87 57.231ZM709.827 58.23V81.4967H711.827V58.23H709.827ZM400.47 143.737V176.28H402.47V143.737H400.47ZM203.643 168.34V196.043H205.643V168.34H203.643ZM2.44595 42.9443L16.6206 51.8177L17.6818 50.1224L3.50717 41.2491L2.44595 42.9443ZM16.6206 51.8177L204.113 169.188L205.174 167.492L17.6818 50.1224L16.6206 51.8177ZM17.2861 51.9609L58.7714 46.3142L58.5017 44.3325L17.0163 49.9792L17.2861 51.9609ZM16.1512 50.97V71.8167H18.1512V50.97H16.1512ZM711.429 59.0279L747.729 31.6012L746.524 30.0055L710.224 57.4322L711.429 59.0279ZM747.429 29.8502L655.872 0.810166L655.268 2.71657L746.824 31.7566L747.429 29.8502Z" fill="white"/>
</svg>
